<svg width="100" height="100" viewBox="0 0 100 100" fill="none" xmlns="http://www.w3.org/2000/svg">
<rect width="100" height="100" rx="50" fill="#FFFAE6"/>
<path d="M61.9992 60.5022C61.9737 59.6322 61.9467 58.9377 61.8425 58.5755L61.6197 57.803L60.9957 58.3085C60.7782 58.4855 60.605 58.8035 60.4332 59.1185C60.1707 59.6022 59.8737 60.1497 59.3517 60.2607C59.3049 60.2705 59.2571 60.2755 59.2092 60.2757C58.9392 60.2757 58.7652 60.0642 58.4802 59.5887C58.2132 59.1425 57.9117 58.6362 57.278 58.6362C57.1715 58.6362 57.0605 58.6512 56.939 58.682C56.5645 58.7778 56.1795 58.8267 55.793 58.8275C54.362 58.8275 53.2947 58.1532 52.7855 57.7505L52.427 57.4685L52.0932 57.779C50.561 59.201 48.1685 59.5325 46.4315 59.5602L46.1307 59.5647L45.98 59.825C45.2615 61.0602 43.3175 61.592 41.7575 62.0195C40.9925 62.2295 40.2687 62.4282 39.7707 62.6817C38.9675 63.0912 39.3035 64.1645 39.6597 65.3007L39.824 65.8227L62.0525 61.898L62.033 61.4315C62.0187 61.1202 62.0082 60.809 61.9992 60.5022ZM71.5797 54.2847C71.5092 54.1287 71.3112 53.8677 70.7937 53.8677C70.439 53.8677 69.932 53.987 69.4722 54.1782L69.3912 54.212L69.245 54.347C68.759 54.7535 68.975 55.508 69.362 56.6127C69.6155 57.335 69.9027 58.154 69.6717 58.5702C69.5877 58.7225 69.4347 58.8222 69.2037 58.8747C69.0875 58.901 68.9787 58.9137 68.8797 58.9137C68.72 58.9208 68.5626 58.8732 68.4335 58.7787C68.0097 58.4532 67.976 57.5937 67.943 56.7627C67.9032 55.7517 67.8455 55.2477 67.4765 54.9777L67.2702 54.8907H67.1555C67.0805 54.8907 66.998 54.9027 66.9192 54.9252C65.9082 55.1975 66.101 55.9302 66.2555 56.5182C66.4505 57.266 66.4587 57.653 65.9855 57.9702C65.7822 58.1067 65.5955 58.1757 65.4312 58.1757C65.1402 58.1757 64.8995 57.962 64.6865 57.773C64.439 57.554 64.184 57.3275 63.833 57.3275C63.626 57.3275 63.4602 57.4092 63.353 57.4707L63.191 57.5652L63.1235 57.74C62.9945 58.0745 63.113 58.5065 63.791 60.1745C63.914 60.4745 64.037 60.7835 64.1555 61.0932L64.304 61.4795L64.715 61.4315C65.4297 61.3475 71.723 60.5862 72.3837 59.519C72.962 58.3602 71.8032 54.776 71.5797 54.2847ZM37.7967 64.5282C37.757 63.761 37.7217 63.1955 37.6235 62.9045L37.4982 62.5325L37.1067 62.5422C36.809 62.549 36.2862 62.7147 35.8992 62.8527C35.4072 63.0267 34.8492 63.224 34.3812 63.224C34.2792 63.224 34.1832 63.215 34.0962 63.1962C33.7212 63.1145 33.641 62.8302 33.593 62.1822C33.5607 61.739 33.5195 61.1877 33.0185 61.0572C32.9243 61.032 32.8272 61.0191 32.7297 61.019C32.4972 61.019 32.291 61.0865 32.0217 61.181C31.829 61.2485 31.5897 61.3332 31.3272 61.3557L31.1877 61.3745C31.043 61.3745 30.5405 61.403 30.1692 61.772C29.9015 62.0375 29.7695 62.4117 29.7777 62.885C29.8175 65.5197 30.383 67.004 31.4585 67.2965C31.688 67.3587 31.9752 67.3895 32.3367 67.3895C33.8037 67.3895 36.272 66.8645 37.4997 66.554L37.949 66.44L37.8987 65.9802C37.8509 65.4973 37.8169 65.0131 37.7967 64.5282Z" fill="#FFA963"/>
<path d="M38.939 68.3525C38.726 68.3525 38.5333 68.2873 38.366 68.1605C37.691 67.646 37.5665 66.2225 37.4825 64.553C37.4488 63.8795 37.4015 62.9683 37.256 62.8753C37.207 62.8629 37.1565 62.8571 37.106 62.858C36.8285 62.858 36.431 62.999 36.0103 63.1475C35.489 63.332 34.904 63.539 34.382 63.539C34.2583 63.539 34.1398 63.527 34.031 63.5038C33.3658 63.3598 33.3178 62.7208 33.2788 62.2078C33.2338 61.6003 33.161 61.4188 32.9383 61.3603C32.8711 61.3431 32.8021 61.3345 32.7328 61.3348C32.534 61.3348 32.33 61.4068 32.1328 61.4765C31.859 61.574 31.5553 61.682 31.1675 61.682C30.8128 61.682 30.443 61.5898 30.035 61.4C29.6713 61.2313 29.426 60.9583 29.309 60.59C29.0225 59.6908 29.5933 58.469 29.7748 58.1165L29.963 57.7483L30.368 57.8413C30.5143 57.875 30.593 57.8938 30.68 57.9043C30.7798 57.9155 30.8728 57.9215 30.9613 57.9215C31.7548 57.9215 32.0188 57.4753 32.2528 57.0815C32.4425 56.7628 32.6203 56.462 33.0155 56.462C33.7153 56.5333 33.7513 57.1018 33.7798 57.5578C33.815 58.106 33.872 58.5118 34.2913 58.7428C34.3957 58.8056 34.5144 58.8407 34.6363 58.8448C34.7765 58.8448 34.9258 58.7825 35.0938 58.6535L35.4193 58.403L35.7433 58.655C36.2818 59.0705 37.811 60.0373 40.3768 60.0373C41.231 60.0373 42.1273 59.9263 43.0408 59.7073C43.3805 59.6255 43.6933 59.5423 43.988 59.4568L44.0638 59.435L44.267 59.4485C44.444 59.474 45.6133 58.0573 46.2583 58.0828L46.6955 59.5978L45.9208 60.4453C44.993 61.4593 43.253 61.9363 41.855 62.3203C41.096 62.528 40.3843 62.723 39.9148 62.9623C39.4325 63.2075 39.5383 63.8585 39.9373 65.135C40.232 66.0725 40.5365 67.0438 40.157 67.7C39.9755 68.015 39.6643 68.2175 39.2053 68.321C39.1179 68.341 39.0286 68.352 38.939 68.3525Z" fill="#F9C900"/>
<path d="M71.5775 54.2825C71.51 54.1325 71.315 53.87 70.79 53.87C70.5425 53.87 70.2275 53.93 69.8975 54.0275C70.28 55.7525 70.4225 57.41 69.7475 58.025C69.77 58.2425 69.7475 58.43 69.6725 58.5725C69.59 58.7225 69.4325 58.82 69.2075 58.8725C69.0875 58.9025 68.975 58.9175 68.8775 58.9175C68.7177 58.9246 68.5607 58.874 68.435 58.775C68.3503 58.7112 68.2811 58.6292 68.2325 58.535C67.19 58.79 65.57 59.1725 63.5675 59.615C63.635 59.7875 63.71 59.975 63.7925 60.1775C63.9125 60.4775 64.04 60.785 64.1525 61.0925L64.3025 61.4825L64.715 61.43C65.4275 61.3475 71.72 60.5825 72.38 59.5175C72.965 58.3625 71.8025 54.7775 71.5775 54.2825ZM62 60.5C61.9925 60.32 61.985 60.14 61.985 59.975C55.715 61.3625 46.7225 63.26 39.77 64.5575C39.815 64.7375 39.8675 64.925 39.935 65.135C40.0025 65.345 40.07 65.5625 40.13 65.7725L62.0525 61.895L62.03 61.43C62.0225 61.1225 62.0075 60.8075 62 60.5ZM30.2525 66.02C30.53 66.725 30.935 67.145 31.46 67.295C31.685 67.3625 31.9775 67.3925 32.3375 67.3925C33.8075 67.3925 36.275 66.8675 37.4975 66.5525L37.655 66.515C37.58 66.0575 37.535 65.5325 37.505 64.97C34.19 65.5625 31.55 65.9675 30.2525 66.02Z" fill="#F49853"/>
<path d="M63.4497 65.2055C63.1752 65.2055 62.939 65.1305 62.7275 64.9737C61.865 64.3377 61.745 62.579 61.6835 60.5165C61.658 59.594 61.631 58.64 61.4435 58.4675C61.181 58.4697 61.016 58.7052 60.713 59.264C60.4167 59.81 60.0807 60.4272 59.4147 60.569C59.3525 60.5825 59.2865 60.5907 59.2212 60.5907C58.7135 60.5907 58.4577 60.1632 58.2102 59.7507C57.929 59.282 57.698 58.9512 57.2825 58.9512C57.1921 58.9524 57.1022 58.9645 57.0147 58.9872C56.616 59.0891 56.2061 59.141 55.7945 59.1417C54.6777 59.1417 53.774 58.7502 53.213 58.4217L51.62 57.3162L53.4792 57.4295C55.0362 57.422 56.3885 57.1122 57.497 56.5077L57.6207 56.4402L57.9537 56.4455C59.1477 56.4455 63.1887 56.2362 64.9737 53.5505L65.0847 53.387L65.2737 53.333C65.612 53.2385 65.8445 53.1005 65.9847 52.9092C66.2975 52.4847 66.1565 51.8457 66.0432 51.3335C66.0115 51.1946 65.984 51.0548 65.9607 50.9142L65.7927 49.7712L66.7707 50.3855C66.899 50.4657 67.0745 50.6067 67.2027 50.7132C67.5762 51.02 68.039 51.401 68.621 51.401C69.011 51.401 69.4362 51.2262 69.8855 50.8805C69.9132 50.8505 69.938 50.8272 69.9672 50.8032L70.5867 50.2887L70.8162 51.0627C71.1642 52.2372 70.7562 53.3975 69.6372 54.4167L69.5352 54.4977L69.4452 54.5907C69.1182 54.8675 69.338 55.5905 69.659 56.507C70.0032 57.4895 70.2252 58.2222 69.9477 58.7232C69.8157 58.9595 69.5952 59.1095 69.2727 59.1815C69.1347 59.213 69.0027 59.2295 68.8805 59.2295C68.5055 59.2295 68.309 59.0795 68.2437 59.03C67.7015 58.613 67.6625 57.6387 67.6287 56.7785C67.6017 56.1155 67.5747 55.4382 67.3265 55.256C67.2758 55.2214 67.2153 55.204 67.154 55.2065C67.102 55.2072 67.0503 55.2147 67.0002 55.229C66.3575 55.403 66.3702 55.7142 66.5592 56.4372C66.7107 57.017 66.899 57.7355 66.161 58.232C65.8962 58.4097 65.6637 58.493 65.4275 58.493C65.024 58.493 64.7615 58.2597 64.4825 58.013C64.2935 57.845 64.0617 57.6402 63.833 57.6402C63.7355 57.6402 63.6305 57.674 63.512 57.743C63.2127 57.917 63.6732 59.0495 64.0797 60.0485C64.7082 61.5927 65.417 63.3297 64.9032 64.3752C64.7187 64.7502 64.3895 65.0052 63.9237 65.1357C63.7696 65.1801 63.6102 65.2036 63.4497 65.2055Z" fill="#F9C900"/>
<path d="M58.5515 55.7788C58.7007 55.649 58.8477 55.5148 58.9865 55.3655L59.1215 55.2193L59.3187 55.1983C59.711 55.1555 60.0087 55.0235 60.2292 54.7955C60.6935 54.3125 60.7017 53.54 60.6845 53.231L60.6695 53.003L60.8262 52.8358C61.0287 52.6205 61.142 52.3168 61.2417 52.0258C61.3767 51.6283 61.4532 51.4408 61.6257 51.3133L61.6482 51.2968L61.733 51.248L61.85 51.2158L61.9962 51.1993C62.4965 51.1993 62.6922 51.6463 62.8992 52.1195C63.215 52.844 63.5247 53.4013 64.3932 53.4395L65.5295 53.4905L64.7637 54.3305C63.1362 56.117 60.4205 56.588 58.946 56.711L57.3282 56.8445L58.5515 55.7788Z" fill="#A02E14"/>
<path d="M53.4177 57.7317C51.5652 57.7317 49.8905 57.3342 49.0557 57.0972L48.3822 56.906L48.7467 56.3075C48.9455 55.9827 48.8435 55.5462 48.7535 55.1615C48.6237 54.611 48.5645 54.3597 48.6912 54.1227L48.8562 53.8137L49.2042 53.8422C49.397 53.8572 49.5702 53.9547 49.9617 54.221C50.2827 54.4385 50.7657 54.7662 51.2495 54.7662C51.3417 54.7662 51.4332 54.7542 51.521 54.731L51.7475 54.6687L51.947 54.7947C52.142 54.92 52.6625 55.2095 53.252 55.2095C53.3795 55.2095 53.5055 55.1952 53.624 55.1675C54.149 55.0475 54.584 54.662 54.92 54.023C55.22 53.4492 55.4952 53.1762 55.811 53.1387H55.8132C56.2557 53.1387 56.546 53.4507 56.9825 53.9585C57.3965 54.4385 57.8637 54.98 58.4862 55.1532L59.459 55.4232L58.6865 56.0735C58.3655 56.3435 58.0632 56.558 57.761 56.729C56.5782 57.3942 55.1172 57.7317 53.4177 57.7317Z" fill="#F40B1C"/>
<path d="M59.0645 55.535C58.9535 55.535 58.8395 55.5298 58.718 55.5163C57.833 55.4263 57.23 54.728 56.7455 54.1663C56.456 53.8295 56.1297 53.4508 55.8777 53.4508C55.6715 53.4733 55.4375 53.7155 55.199 54.1678C54.8202 54.8915 54.3162 55.3303 53.702 55.4728C53.5595 55.5065 53.4087 55.523 53.255 55.523C52.9235 55.523 52.5762 55.445 52.2215 55.292L51.464 54.9643L52.0745 54.4093C52.1267 54.3625 52.1767 54.3135 52.2245 54.2623C52.5342 53.9255 52.6572 53.5783 52.5897 53.2295C52.484 52.676 51.9462 52.2035 51.5142 51.9058L50.5002 51.2053L51.704 50.9473C53.7957 50.4973 56.0345 50.009 58.1975 49.5253L59.3007 49.2785L58.7885 50.2865C58.5848 50.7053 58.5161 51.177 58.592 51.6365C58.7307 52.481 59.2632 53.0803 59.918 53.1275C60.0618 53.1379 60.2064 53.1268 60.347 53.0945L61.0467 52.94L60.9927 53.654C60.9507 54.2323 60.7677 54.6905 60.4527 55.0168C60.119 55.361 59.6517 55.535 59.0645 55.535Z" fill="#599306"/>
<path d="M45.767 59.8693L43.553 59.5903L45.68 58.8508C47.471 58.058 47.7095 57.296 47.7387 57.1513L47.801 56.8528L48.089 56.7545C48.1563 56.7322 48.2224 56.7064 48.287 56.6773L48.482 56.5858L48.6852 56.6555C48.824 56.7035 50.0802 57.128 51.7602 57.3283L53.0277 57.479L52.0287 58.274C50.3675 59.5948 47.9172 59.8723 46.1532 59.8723L45.767 59.8693Z" fill="#A02E14"/>
<path d="M40.4127 60.3463C37.853 60.3463 36.227 59.3863 35.6465 58.9738L35.1762 58.6393L35.6285 58.1023C35.936 57.737 36.1587 57.491 36.44 57.4048L36.53 57.3823L36.6275 57.3755C36.9417 57.3755 37.2102 57.566 37.5215 57.788C37.9212 58.0715 38.3712 58.391 38.9067 58.391C39.1715 58.391 39.4392 58.316 39.7257 58.1623C39.9672 58.031 40.1697 57.8278 40.3257 57.5608L40.6167 57.0583L41.0922 57.3928C41.3937 57.6058 41.8745 57.8585 42.4482 57.8585C42.7505 57.8585 43.0505 57.7858 43.3422 57.6425C44.0397 57.2998 44.057 56.8288 44.0075 56.249L44.0037 56.204L44.3285 55.6093L44.9495 55.8268L45.0575 55.994C45.3275 56.423 45.6627 56.954 46.7855 56.954C46.9407 56.954 47.1095 56.9443 47.291 56.9225L48.4932 56.7778L47.7875 57.7618C47.3397 58.3858 46.166 59.2835 43.115 60.014C42.1925 60.2345 41.2827 60.3463 40.4127 60.3463Z" fill="#F40B1C"/>
<path d="M42.4453 58.1713C41.5978 58.1713 40.9588 57.7085 40.724 57.5098L40.472 57.2953L40.5508 56.9743C40.742 56.0308 40.421 54.8068 40.0048 54.089L39.6313 53.444L40.361 53.2993C43.2811 52.7171 46.1977 52.1171 49.1105 51.4993L50.8685 51.1265L51.0598 51.2615C51.6845 51.5938 52.7263 52.2703 52.8988 53.1695C52.9858 53.6233 52.8373 54.062 52.4563 54.476C52.0783 54.887 51.68 55.0865 51.239 55.0865C50.7215 55.0865 50.2558 54.8 49.784 54.482C49.592 54.3508 49.301 54.1528 49.1518 54.1528C48.9148 54.3305 48.938 54.5713 49.0588 55.088C49.1668 55.5485 49.289 56.0705 48.9965 56.5085C48.7633 56.8603 48.299 57.0898 47.5768 57.2105C47.2813 57.2593 47.0083 57.2848 46.7638 57.2848C45.4985 57.2848 45.0785 56.6188 44.801 56.1778C44.6113 55.8755 44.5385 55.8028 44.426 55.8028C44.369 55.8058 44.3413 55.8178 44.336 55.8253C44.291 55.8763 44.3083 56.0743 44.321 56.2183C44.363 56.7133 44.4275 57.461 43.481 57.926C43.1592 58.0863 42.8048 58.1703 42.4453 58.1713ZM64.478 53.765C63.2735 53.765 62.909 52.9295 62.615 52.2583C62.39 51.7423 62.2528 51.5128 62.03 51.5128C61.9811 51.5134 61.9325 51.5199 61.8853 51.5323C61.7405 51.569 61.6505 51.8008 61.5403 52.1248C61.3505 52.6835 61.0903 53.4493 60.0628 53.4493C60.0088 53.4493 59.9533 53.447 59.894 53.4418C58.967 53.3743 58.4165 52.5118 58.2815 51.6875C58.1345 50.7815 58.439 49.676 59.4538 49.2523C64.559 48.0913 67.7563 47.303 68.981 46.9033L69.2765 46.8058L69.5068 47.0173C69.845 47.3285 70.9483 48.4378 70.9138 49.637C70.8958 50.213 70.6145 50.7155 70.0775 51.1295C69.5705 51.521 69.0935 51.7115 68.6195 51.7115C67.9198 51.7115 67.4315 51.3095 67.0018 50.9548C66.7655 50.762 66.5248 50.564 66.3695 50.564C66.281 50.579 66.203 50.5978 66.3508 51.2653C66.4783 51.8405 66.6358 52.5568 66.2383 53.0968C65.9593 53.4763 65.462 53.6915 64.7173 53.7538C64.6348 53.7613 64.5545 53.765 64.478 53.765Z" fill="#77A505"/>
<path d="M34.634 59.1545C34.46 59.1523 34.2895 59.1053 34.139 59.018C33.5367 58.6872 33.4977 58.073 33.4662 57.578C33.425 56.9232 33.3327 56.8092 33.056 56.7792C32.825 56.78 32.7185 56.915 32.5347 57.224C32.2812 57.6515 31.9347 58.2365 30.9657 58.2365C30.8682 58.2365 30.7617 58.2305 30.6455 58.2177C29.9337 58.136 29.4095 57.8592 29.0855 57.3942C28.6347 56.7447 28.7142 55.9167 28.769 55.592L28.8425 55.1645L29.276 55.1495C30.6417 55.1007 34.106 54.5315 39.5705 53.456L39.89 53.3937L40.091 53.6487C40.481 54.14 41.1327 55.6805 40.871 57.0102C40.742 57.6627 40.397 58.1562 39.8735 58.439C39.542 58.619 39.2232 58.7067 38.9007 58.7067C38.2715 58.7067 37.7967 58.3692 37.3775 58.0722C37.1135 57.8847 36.842 57.6897 36.635 57.6897C36.6001 57.6897 36.5655 57.6951 36.5322 57.7055C36.3192 57.7715 36.0912 58.043 35.8707 58.3055C35.4522 58.802 35.1177 59.1545 34.6332 59.1545H34.634Z" fill="#599306"/>
<path d="M29.4507 47.8228C33.263 43.142 42.344 32.24 44.1755 31.6678C44.288 31.6333 44.417 31.6168 44.5707 31.6168C47.5662 31.6168 64.7382 38.7125 67.9932 41.0068L68.6622 41.5505L67.8237 41.9578C66.035 42.4325 56.6585 44.9008 47.6975 46.8905C38.813 48.863 29.9862 50.4388 28.3077 50.735L27.4287 50.537C27.4287 50.537 28.5357 48.947 29.4507 47.8228Z" fill="#FCC683"/>
<path d="M68.66 41.5475L67.82 41.96C66.035 42.4325 56.66 44.9 47.6975 46.8875C38.81 48.86 29.99 50.4425 28.31 50.735L27.4325 50.54C27.4325 50.54 27.9425 49.7975 28.5575 48.9725C32.285 48.2675 37.4 47.2625 42.53 46.1225C51.17 44.2025 60.2 41.84 62.435 41.2475C62.585 41.21 62.72 41.1575 62.855 41.09L63.4925 40.7825L62.9075 40.31C62.8475 40.265 62.8025 40.2275 62.7425 40.1825C60.1325 38.405 49.835 33.9875 43.685 31.9325C43.88 31.7975 44.045 31.7075 44.1725 31.67C44.285 31.6325 44.42 31.6175 44.57 31.6175C47.5625 31.6175 64.7375 38.7125 67.9925 41.0075L68.66 41.5475Z" fill="#F7BE7F"/>
<path d="M29.2662 55.5373C29.129 55.5373 29.0052 55.5245 28.8897 55.499L28.7885 55.469C28.208 55.127 27.7625 54.2743 27.5127 53.0975C27.3492 52.3288 27.3005 51.569 27.377 50.9585L27.4295 50.537L27.857 50.4695C27.9297 50.4575 37.622 48.8045 47.63 46.583C55.3377 44.8723 63.2075 42.8443 66.4977 41.981C67.4255 41.738 68.6622 41.5505 68.6622 41.5505L68.7695 41.8055C69.8225 43.913 70.742 46.1818 69.569 47.0098C69.1077 47.3353 68.4867 47.4718 67.94 47.5918C67.7772 47.627 67.6235 47.6608 67.4862 47.6975C66.0845 48.0725 64.6857 48.404 63.3725 48.7115C59.4485 49.6333 55.5672 50.4665 51.9575 51.2308C48.9882 51.8608 45.893 52.4983 42.7572 53.126C40.2366 53.634 37.7121 54.122 35.1837 54.59L34.8387 54.6538C33.3072 54.9358 31.739 55.2253 30.1812 55.4285C30.1092 55.4375 30.032 55.451 29.9532 55.4638C29.744 55.4983 29.5077 55.5373 29.2662 55.5373Z" fill="#FFA963"/>
<path d="M69.5675 47.0075C69.11 47.3375 68.4875 47.4725 67.94 47.5925C67.775 47.63 67.625 47.66 67.49 47.6975C66.0875 48.0725 64.685 48.4025 63.3725 48.71C59.45 49.6325 55.565 50.465 51.9575 51.23C48.9875 51.86 45.89 52.4975 42.755 53.1275C39.77 53.7275 37.3625 54.1925 35.1875 54.59L34.8425 54.65C33.305 54.935 31.7375 55.2275 30.185 55.43C30.11 55.4375 30.035 55.4525 29.9525 55.46C29.7425 55.4975 29.51 55.535 29.27 55.535C29.1275 55.535 29.0075 55.5275 28.8875 55.4975L28.79 55.4675C28.5125 55.31 28.265 55.0325 28.0625 54.6575L28.2275 54.635C28.31 54.62 28.385 54.605 28.46 54.5975C30.0125 54.395 31.5875 54.1025 33.1175 53.825L33.4625 53.7575C35.6375 53.36 38.045 52.895 41.03 52.295C44.1725 51.665 47.2625 51.0275 50.2325 50.3975C53.84 49.64 57.725 48.8 61.6475 47.885C62.96 47.5775 64.3625 47.24 65.765 46.865C65.9 46.8275 66.0575 46.7975 66.215 46.76C66.7625 46.64 67.385 46.505 67.8425 46.1825C68.8775 45.455 68.2925 43.625 67.43 41.765C68.0825 41.6375 68.66 41.5475 68.66 41.5475L68.7725 41.8025C69.8225 43.91 70.745 46.1825 69.5675 47.0075Z" fill="#F49853"/>
</svg>
