<svg width="35" height="35" viewBox="0 0 35 35" fill="none" xmlns="http://www.w3.org/2000/svg">
<path fill-rule="evenodd" clip-rule="evenodd" d="M23.625 27.7083C25.8802 27.7083 27.7083 25.8801 27.7083 23.625C27.7083 21.3698 25.8802 19.5416 23.625 19.5416C21.3698 19.5416 19.5417 21.3698 19.5417 23.625C19.5417 25.8801 21.3698 27.7083 23.625 27.7083ZM23.625 15.4583C25.8802 15.4583 27.7083 13.6301 27.7083 11.375C27.7083 9.1198 25.8802 7.29163 23.625 7.29163C21.3698 7.29163 19.5417 9.1198 19.5417 11.375C19.5417 13.6301 21.3698 15.4583 23.625 15.4583ZM11.375 27.7083C13.6302 27.7083 15.4583 25.8801 15.4583 23.625C15.4583 21.3698 13.6302 19.5416 11.375 19.5416C9.11984 19.5416 7.29167 21.3698 7.29167 23.625C7.29167 25.8801 9.11984 27.7083 11.375 27.7083Z" fill="#C1C7D0"/>
<path fill-rule="evenodd" clip-rule="evenodd" d="M11.375 15.4583C13.6302 15.4583 15.4583 13.6301 15.4583 11.375C15.4583 9.1198 13.6302 7.29163 11.375 7.29163C9.11984 7.29163 7.29167 9.1198 7.29167 11.375C7.29167 13.6301 9.11984 15.4583 11.375 15.4583Z" fill="#C1C7D0"/>
</svg>
