<svg width="19" height="21" viewBox="0 0 19 21" fill="none" xmlns="http://www.w3.org/2000/svg">
<path fill-rule="evenodd" clip-rule="evenodd" d="M0.523956 17.7172V16.2501C0.579407 15.1608 1.23424 14.192 2.22437 13.7345C6.8935 11.859 12.1065 11.859 16.7756 13.7345C17.7658 14.192 18.4206 15.1608 18.476 16.2501V17.7172C18.4757 18.5114 18.1596 19.2728 17.5975 19.8338C17.0354 20.3948 16.2733 20.7094 15.4792 20.7082H3.52083C2.72667 20.7094 1.96461 20.3948 1.4025 19.8338C0.840394 19.2728 0.524342 18.5114 0.523956 17.7172Z" fill="#C1C7D0"/>
<path fill-rule="evenodd" clip-rule="evenodd" d="M9.5 0.291626C7.48261 0.291036 5.66354 1.50583 4.89111 3.36948C4.11868 5.23314 4.54503 7.37859 5.97133 8.80531C7.39763 10.232 9.54296 10.659 11.4068 9.88711C13.2707 9.11523 14.486 7.29651 14.486 5.27913C14.4864 3.95649 13.9613 2.6879 13.0262 1.75252C12.0911 0.81714 10.8226 0.291626 9.5 0.291626Z" fill="#C1C7D0"/>
</svg>
