<svg width="19" height="19" viewBox="0 0 19 19" fill="none" xmlns="http://www.w3.org/2000/svg">
<path d="M8.2411 14.0713C9.02904 14.0713 9.80925 13.9161 10.5372 13.6146C11.2652 13.313 11.9266 12.8711 12.4837 12.3139C13.0409 11.7568 13.4829 11.0953 13.7844 10.3674C14.0859 9.63943 14.2411 8.85921 14.2411 8.07128C14.2411 7.28335 14.0859 6.50314 13.7844 5.77518C13.4829 5.04723 13.0409 4.38579 12.4837 3.82864C11.9266 3.27149 11.2652 2.82953 10.5372 2.52801C9.80925 2.22648 9.02904 2.07128 8.2411 2.07128C6.64981 2.07128 5.12368 2.70342 3.99846 3.82864C2.87324 4.95386 2.2411 6.47998 2.2411 8.07128C2.2411 9.66258 2.87324 11.1887 3.99846 12.3139C5.12368 13.4391 6.64981 14.0713 8.2411 14.0713ZM14.5611 12.9773L18.1411 16.5573C18.2365 16.6496 18.3126 16.76 18.365 16.882C18.4173 17.0041 18.4448 17.1353 18.4458 17.2681C18.4469 17.4009 18.4215 17.5325 18.3711 17.6554C18.3208 17.7783 18.2464 17.8899 18.1525 17.9837C18.0585 18.0775 17.9468 18.1517 17.8239 18.2019C17.701 18.2521 17.5693 18.2773 17.4365 18.276C17.3037 18.2748 17.1725 18.2471 17.0505 18.1946C16.9286 18.1421 16.8183 18.0659 16.7261 17.9703L13.1461 14.3903C11.5386 15.6381 9.5159 16.2265 7.48986 16.0355C5.46382 15.8445 3.58671 14.8886 2.24065 13.3623C0.894601 11.8361 0.180789 9.85423 0.24453 7.82021C0.308271 5.78618 1.14477 3.85291 2.58375 2.41393C4.02273 0.974952 5.95601 0.13845 7.99003 0.0747088C10.024 0.0109677 12.0059 0.72478 13.5322 2.07083C15.0584 3.41689 16.0143 5.294 16.2053 7.32004C16.3963 9.34608 15.808 11.3687 14.5601 12.9763L14.5611 12.9773Z" fill="#181725"/>
</svg>
