<svg width="10" height="10" viewBox="0 0 10 10" fill="none" xmlns="http://www.w3.org/2000/svg">
<path fill-rule="evenodd" clip-rule="evenodd" d="M5.43807 0.791991L6.6074 3.25866L9.00207 3.51266C9.25 3.53671 9.45869 3.70849 9.52996 3.94717C9.60123 4.18586 9.52089 4.44393 9.32673 4.59999L7.4174 6.16999L8.00807 8.80932C8.06203 9.04914 7.96743 9.298 7.76778 9.44141C7.56814 9.58482 7.30211 9.59502 7.09207 9.46732L4.88407 8.12399L2.67407 9.46666C2.46393 9.5941 2.198 9.58381 1.99835 9.44049C1.7987 9.29718 1.70387 9.04852 1.7574 8.80866L2.35073 6.16999L0.441399 4.59999C0.248636 4.44353 0.169355 4.1862 0.240641 3.94839C0.311927 3.71057 0.519687 3.53929 0.766732 3.51466L3.16073 3.26066L4.33007 0.791991C4.43166 0.578122 4.64729 0.441833 4.88407 0.441833C5.12084 0.441833 5.33647 0.578122 5.43807 0.791991Z" fill="white"/>
</svg>
